<mxfile host="app.diagrams.net" modified="2022-07-22T09:35:52.443Z" agent="5.0 (Windows NT 10.0; Win64; x64) AppleWebKit/537.36 (KHTML, like Gecko) Chrome/103.0.5060.134 Safari/537.36" etag="oxYkdAJqQVcIAdgUQDfG" version="20.1.4" type="github">
  <diagram id="ewIAJAoHXzA7jl-C8Amx" name="PÃ gina-1">
    <mxGraphModel dx="1987" dy="1786" grid="1" gridSize="10" guides="1" tooltips="1" connect="1" arrows="1" fold="1" page="1" pageScale="1" pageWidth="827" pageHeight="1169" math="0" shadow="0">
      <root>
        <mxCell id="0" />
        <mxCell id="1" parent="0" />
        <mxCell id="r9TU66ESRmwP2G9Z5Zs9-1" value="Usuario" style="swimlane;childLayout=stackLayout;horizontal=1;startSize=30;horizontalStack=0;rounded=1;fontSize=14;fontStyle=0;strokeWidth=2;resizeParent=0;resizeLast=1;shadow=0;dashed=0;align=center;" vertex="1" parent="1">
          <mxGeometry x="90" y="180" width="160" height="120" as="geometry" />
        </mxCell>
        <mxCell id="r9TU66ESRmwP2G9Z5Zs9-2" value="- &lt;u&gt;username&lt;/u&gt;&lt;br&gt;- nombre&lt;br&gt;- apellidos&lt;br&gt;- email&lt;br&gt;- telefono" style="align=left;strokeColor=none;fillColor=none;spacingLeft=4;fontSize=12;verticalAlign=top;resizable=0;rotatable=0;part=1;html=1;" vertex="1" parent="r9TU66ESRmwP2G9Z5Zs9-1">
          <mxGeometry y="30" width="160" height="90" as="geometry" />
        </mxCell>
        <mxCell id="r9TU66ESRmwP2G9Z5Zs9-3" value="Grupo" style="swimlane;childLayout=stackLayout;horizontal=1;startSize=30;horizontalStack=0;rounded=1;fontSize=14;fontStyle=0;strokeWidth=2;resizeParent=0;resizeLast=1;shadow=0;dashed=0;align=center;" vertex="1" parent="1">
          <mxGeometry x="90" y="470" width="160" height="90" as="geometry" />
        </mxCell>
        <mxCell id="r9TU66ESRmwP2G9Z5Zs9-4" value="- &lt;u&gt;idGrupo&lt;/u&gt;&lt;br&gt;- nombre&lt;br&gt;- fechaCreacion" style="align=left;strokeColor=none;fillColor=none;spacingLeft=4;fontSize=12;verticalAlign=top;resizable=0;rotatable=0;part=1;html=1;" vertex="1" parent="r9TU66ESRmwP2G9Z5Zs9-3">
          <mxGeometry y="30" width="160" height="60" as="geometry" />
        </mxCell>
        <mxCell id="r9TU66ESRmwP2G9Z5Zs9-5" value="esMiembro" style="shape=rhombus;perimeter=rhombusPerimeter;whiteSpace=wrap;html=1;align=center;" vertex="1" parent="1">
          <mxGeometry x="190" y="350" width="120" height="60" as="geometry" />
        </mxCell>
        <mxCell id="r9TU66ESRmwP2G9Z5Zs9-6" value="esAdmin" style="shape=rhombus;perimeter=rhombusPerimeter;whiteSpace=wrap;html=1;align=center;" vertex="1" parent="1">
          <mxGeometry x="40" y="350" width="120" height="60" as="geometry" />
        </mxCell>
        <mxCell id="r9TU66ESRmwP2G9Z5Zs9-7" value="Mensaje" style="swimlane;childLayout=stackLayout;horizontal=1;startSize=30;horizontalStack=0;rounded=1;fontSize=14;fontStyle=0;strokeWidth=2;resizeParent=0;resizeLast=1;shadow=0;dashed=0;align=center;" vertex="1" parent="1">
          <mxGeometry x="520" y="-30" width="160" height="70" as="geometry" />
        </mxCell>
        <mxCell id="r9TU66ESRmwP2G9Z5Zs9-8" value="- &lt;u&gt;idMsg&lt;/u&gt;&lt;br&gt;- cuerpoMsg" style="align=left;strokeColor=none;fillColor=none;spacingLeft=4;fontSize=12;verticalAlign=top;resizable=0;rotatable=0;part=1;html=1;" vertex="1" parent="r9TU66ESRmwP2G9Z5Zs9-7">
          <mxGeometry y="30" width="160" height="40" as="geometry" />
        </mxCell>
        <mxCell id="r9TU66ESRmwP2G9Z5Zs9-10" value="sigue" style="shape=rhombus;perimeter=rhombusPerimeter;whiteSpace=wrap;html=1;align=center;" vertex="1" parent="1">
          <mxGeometry x="-70" y="200" width="120" height="60" as="geometry" />
        </mxCell>
        <mxCell id="r9TU66ESRmwP2G9Z5Zs9-12" value="Tweet" style="swimlane;childLayout=stackLayout;horizontal=1;startSize=30;horizontalStack=0;rounded=1;fontSize=14;fontStyle=0;strokeWidth=2;resizeParent=0;resizeLast=1;shadow=0;dashed=0;align=center;" vertex="1" parent="1">
          <mxGeometry x="470" y="140" width="160" height="70" as="geometry" />
        </mxCell>
        <mxCell id="r9TU66ESRmwP2G9Z5Zs9-13" value="- &lt;u&gt;idMsg&lt;/u&gt;&lt;br&gt;- cuerpoMsg" style="align=left;strokeColor=none;fillColor=none;spacingLeft=4;fontSize=12;verticalAlign=top;resizable=0;rotatable=0;part=1;html=1;" vertex="1" parent="r9TU66ESRmwP2G9Z5Zs9-12">
          <mxGeometry y="30" width="160" height="40" as="geometry" />
        </mxCell>
        <mxCell id="r9TU66ESRmwP2G9Z5Zs9-14" value="Privado" style="swimlane;childLayout=stackLayout;horizontal=1;startSize=30;horizontalStack=0;rounded=1;fontSize=14;fontStyle=0;strokeWidth=2;resizeParent=0;resizeLast=1;shadow=0;dashed=0;align=center;" vertex="1" parent="1">
          <mxGeometry x="710" y="140" width="160" height="70" as="geometry" />
        </mxCell>
        <mxCell id="r9TU66ESRmwP2G9Z5Zs9-15" value="- &lt;u&gt;idMsg&lt;/u&gt;&lt;br&gt;- cuerpoMsg" style="align=left;strokeColor=none;fillColor=none;spacingLeft=4;fontSize=12;verticalAlign=top;resizable=0;rotatable=0;part=1;html=1;" vertex="1" parent="r9TU66ESRmwP2G9Z5Zs9-14">
          <mxGeometry y="30" width="160" height="40" as="geometry" />
        </mxCell>
        <mxCell id="r9TU66ESRmwP2G9Z5Zs9-16" value="Grupo" style="swimlane;childLayout=stackLayout;horizontal=1;startSize=30;horizontalStack=0;rounded=1;fontSize=14;fontStyle=0;strokeWidth=2;resizeParent=0;resizeLast=1;shadow=0;dashed=0;align=center;" vertex="1" parent="1">
          <mxGeometry x="760" y="260" width="160" height="70" as="geometry" />
        </mxCell>
        <mxCell id="r9TU66ESRmwP2G9Z5Zs9-17" value="- &lt;u&gt;idMsg&lt;/u&gt;&lt;br&gt;- cuerpoMsg" style="align=left;strokeColor=none;fillColor=none;spacingLeft=4;fontSize=12;verticalAlign=top;resizable=0;rotatable=0;part=1;html=1;" vertex="1" parent="r9TU66ESRmwP2G9Z5Zs9-16">
          <mxGeometry y="30" width="160" height="40" as="geometry" />
        </mxCell>
        <mxCell id="r9TU66ESRmwP2G9Z5Zs9-18" value="DM" style="swimlane;childLayout=stackLayout;horizontal=1;startSize=30;horizontalStack=0;rounded=1;fontSize=14;fontStyle=0;strokeWidth=2;resizeParent=0;resizeLast=1;shadow=0;dashed=0;align=center;" vertex="1" parent="1">
          <mxGeometry x="580" y="260" width="160" height="70" as="geometry" />
        </mxCell>
        <mxCell id="r9TU66ESRmwP2G9Z5Zs9-19" value="- &lt;u&gt;idMsg&lt;/u&gt;&lt;br&gt;- cuerpoMsg" style="align=left;strokeColor=none;fillColor=none;spacingLeft=4;fontSize=12;verticalAlign=top;resizable=0;rotatable=0;part=1;html=1;" vertex="1" parent="r9TU66ESRmwP2G9Z5Zs9-18">
          <mxGeometry y="30" width="160" height="40" as="geometry" />
        </mxCell>
        <mxCell id="r9TU66ESRmwP2G9Z5Zs9-20" value="" style="endArrow=none;html=1;rounded=0;edgeStyle=orthogonalEdgeStyle;exitX=0.547;exitY=0.065;exitDx=0;exitDy=0;exitPerimeter=0;curved=1;entryX=0.026;entryY=0.013;entryDx=0;entryDy=0;entryPerimeter=0;" edge="1" parent="1" source="r9TU66ESRmwP2G9Z5Zs9-10" target="r9TU66ESRmwP2G9Z5Zs9-1">
          <mxGeometry relative="1" as="geometry">
            <mxPoint x="260" y="240" as="sourcePoint" />
            <mxPoint x="420" y="240" as="targetPoint" />
            <Array as="points">
              <mxPoint x="-4" y="160" />
              <mxPoint x="94" y="160" />
            </Array>
          </mxGeometry>
        </mxCell>
        <mxCell id="r9TU66ESRmwP2G9Z5Zs9-21" value="" style="endArrow=none;html=1;rounded=0;edgeStyle=orthogonalEdgeStyle;exitX=0.5;exitY=1;exitDx=0;exitDy=0;curved=1;entryX=0.065;entryY=1.002;entryDx=0;entryDy=0;entryPerimeter=0;" edge="1" parent="1" source="r9TU66ESRmwP2G9Z5Zs9-10" target="r9TU66ESRmwP2G9Z5Zs9-2">
          <mxGeometry relative="1" as="geometry">
            <mxPoint x="0.020000000000099938" y="293.9000000000001" as="sourcePoint" />
            <mxPoint x="98.54000000000008" y="271.55999999999995" as="targetPoint" />
            <Array as="points">
              <mxPoint x="-10" y="320" />
              <mxPoint x="100" y="320" />
              <mxPoint x="100" y="300" />
            </Array>
          </mxGeometry>
        </mxCell>
        <mxCell id="r9TU66ESRmwP2G9Z5Zs9-22" value="" style="endArrow=none;html=1;rounded=0;curved=1;" edge="1" parent="1" source="r9TU66ESRmwP2G9Z5Zs9-2" target="r9TU66ESRmwP2G9Z5Zs9-6">
          <mxGeometry relative="1" as="geometry">
            <mxPoint x="190" y="340" as="sourcePoint" />
            <mxPoint x="350" y="340" as="targetPoint" />
          </mxGeometry>
        </mxCell>
        <mxCell id="r9TU66ESRmwP2G9Z5Zs9-23" value="" style="endArrow=none;html=1;rounded=0;curved=1;" edge="1" parent="1" source="r9TU66ESRmwP2G9Z5Zs9-2" target="r9TU66ESRmwP2G9Z5Zs9-5">
          <mxGeometry relative="1" as="geometry">
            <mxPoint x="154.79999999999995" y="310.0000000000002" as="sourcePoint" />
            <mxPoint x="123.125" y="366.5625000000002" as="targetPoint" />
          </mxGeometry>
        </mxCell>
        <mxCell id="r9TU66ESRmwP2G9Z5Zs9-24" value="" style="endArrow=none;html=1;rounded=0;curved=1;" edge="1" parent="1" source="r9TU66ESRmwP2G9Z5Zs9-5" target="r9TU66ESRmwP2G9Z5Zs9-3">
          <mxGeometry relative="1" as="geometry">
            <mxPoint x="208.79999999999995" y="310.0000000000002" as="sourcePoint" />
            <mxPoint x="245.4545454545455" y="367.27272727272725" as="targetPoint" />
          </mxGeometry>
        </mxCell>
        <mxCell id="r9TU66ESRmwP2G9Z5Zs9-25" value="" style="endArrow=none;html=1;rounded=0;curved=1;" edge="1" parent="1" source="r9TU66ESRmwP2G9Z5Zs9-6" target="r9TU66ESRmwP2G9Z5Zs9-3">
          <mxGeometry relative="1" as="geometry">
            <mxPoint x="246.28571428571422" y="413.14285714285734" as="sourcePoint" />
            <mxPoint x="206.66666666666674" y="480" as="targetPoint" />
          </mxGeometry>
        </mxCell>
        <mxCell id="r9TU66ESRmwP2G9Z5Zs9-26" value="" style="endArrow=none;html=1;rounded=0;curved=1;dashed=1;" edge="1" parent="1" source="r9TU66ESRmwP2G9Z5Zs9-2" target="r9TU66ESRmwP2G9Z5Zs9-8">
          <mxGeometry relative="1" as="geometry">
            <mxPoint x="208.79999999999995" y="310.0000000000002" as="sourcePoint" />
            <mxPoint x="245.4545454545455" y="367.27272727272725" as="targetPoint" />
          </mxGeometry>
        </mxCell>
        <mxCell id="r9TU66ESRmwP2G9Z5Zs9-27" value="" style="endArrow=none;html=1;rounded=0;curved=1;" edge="1" parent="1" source="r9TU66ESRmwP2G9Z5Zs9-8" target="r9TU66ESRmwP2G9Z5Zs9-14">
          <mxGeometry relative="1" as="geometry">
            <mxPoint x="208.80000000000018" y="310" as="sourcePoint" />
            <mxPoint x="245.4545454545455" y="367.2727272727275" as="targetPoint" />
          </mxGeometry>
        </mxCell>
        <mxCell id="r9TU66ESRmwP2G9Z5Zs9-28" value="" style="endArrow=none;html=1;rounded=0;curved=1;" edge="1" parent="1" source="r9TU66ESRmwP2G9Z5Zs9-8" target="r9TU66ESRmwP2G9Z5Zs9-12">
          <mxGeometry relative="1" as="geometry">
            <mxPoint x="634.516129032258" y="50" as="sourcePoint" />
            <mxPoint x="757.0967741935483" y="150" as="targetPoint" />
          </mxGeometry>
        </mxCell>
        <mxCell id="r9TU66ESRmwP2G9Z5Zs9-29" value="" style="endArrow=none;html=1;rounded=0;curved=1;" edge="1" parent="1" source="r9TU66ESRmwP2G9Z5Zs9-15" target="r9TU66ESRmwP2G9Z5Zs9-18">
          <mxGeometry relative="1" as="geometry">
            <mxPoint x="603.5483870967741" y="50" as="sourcePoint" />
            <mxPoint x="571.2903225806454" y="150" as="targetPoint" />
          </mxGeometry>
        </mxCell>
        <mxCell id="r9TU66ESRmwP2G9Z5Zs9-30" value="" style="endArrow=none;html=1;rounded=0;curved=1;" edge="1" parent="1" source="r9TU66ESRmwP2G9Z5Zs9-15" target="r9TU66ESRmwP2G9Z5Zs9-16">
          <mxGeometry relative="1" as="geometry">
            <mxPoint x="816.8421052631579" y="220" as="sourcePoint" />
            <mxPoint x="850.5263157894738" y="260" as="targetPoint" />
          </mxGeometry>
        </mxCell>
        <mxCell id="r9TU66ESRmwP2G9Z5Zs9-31" value="" style="endArrow=none;html=1;rounded=0;curved=1;dashed=1;" edge="1" parent="1" source="r9TU66ESRmwP2G9Z5Zs9-3" target="r9TU66ESRmwP2G9Z5Zs9-17">
          <mxGeometry relative="1" as="geometry">
            <mxPoint x="260" y="221.2790697674418" as="sourcePoint" />
            <mxPoint x="573.4042553191484" y="50" as="targetPoint" />
          </mxGeometry>
        </mxCell>
        <mxCell id="r9TU66ESRmwP2G9Z5Zs9-32" value="" style="endArrow=none;html=1;rounded=0;curved=1;dashed=1;exitX=1;exitY=0.75;exitDx=0;exitDy=0;" edge="1" parent="1" source="r9TU66ESRmwP2G9Z5Zs9-2" target="r9TU66ESRmwP2G9Z5Zs9-19">
          <mxGeometry relative="1" as="geometry">
            <mxPoint x="260" y="492.5471698113206" as="sourcePoint" />
            <mxPoint x="660.6976744186045" y="330" as="targetPoint" />
          </mxGeometry>
        </mxCell>
        <mxCell id="r9TU66ESRmwP2G9Z5Zs9-33" value="Comentario" style="swimlane;childLayout=stackLayout;horizontal=1;startSize=30;horizontalStack=0;rounded=1;fontSize=14;fontStyle=0;strokeWidth=2;resizeParent=0;resizeLast=1;shadow=0;dashed=0;align=center;" vertex="1" parent="1">
          <mxGeometry x="320" y="-130" width="160" height="70" as="geometry" />
        </mxCell>
        <mxCell id="r9TU66ESRmwP2G9Z5Zs9-34" value="-&amp;nbsp;&lt;u&gt;id&lt;/u&gt;&lt;br&gt;- fecha" style="align=left;strokeColor=none;fillColor=none;spacingLeft=4;fontSize=12;verticalAlign=top;resizable=0;rotatable=0;part=1;html=1;" vertex="1" parent="r9TU66ESRmwP2G9Z5Zs9-33">
          <mxGeometry y="30" width="160" height="40" as="geometry" />
        </mxCell>
        <mxCell id="r9TU66ESRmwP2G9Z5Zs9-35" value="Like" style="swimlane;childLayout=stackLayout;horizontal=1;startSize=30;horizontalStack=0;rounded=1;fontSize=14;fontStyle=0;strokeWidth=2;resizeParent=0;resizeLast=1;shadow=0;dashed=0;align=center;" vertex="1" parent="1">
          <mxGeometry x="150" y="-70" width="160" height="70" as="geometry" />
        </mxCell>
        <mxCell id="r9TU66ESRmwP2G9Z5Zs9-36" value="-&amp;nbsp;&lt;u&gt;id&lt;/u&gt;&lt;br&gt;- fecha" style="align=left;strokeColor=none;fillColor=none;spacingLeft=4;fontSize=12;verticalAlign=top;resizable=0;rotatable=0;part=1;html=1;" vertex="1" parent="r9TU66ESRmwP2G9Z5Zs9-35">
          <mxGeometry y="30" width="160" height="40" as="geometry" />
        </mxCell>
        <mxCell id="r9TU66ESRmwP2G9Z5Zs9-37" value="RT" style="swimlane;childLayout=stackLayout;horizontal=1;startSize=30;horizontalStack=0;rounded=1;fontSize=14;fontStyle=0;strokeWidth=2;resizeParent=0;resizeLast=1;shadow=0;dashed=0;align=center;" vertex="1" parent="1">
          <mxGeometry x="80" y="40" width="160" height="70" as="geometry" />
        </mxCell>
        <mxCell id="r9TU66ESRmwP2G9Z5Zs9-47" value="-&amp;nbsp;&lt;u&gt;id&lt;/u&gt;&lt;br&gt;- fecha" style="align=left;strokeColor=none;fillColor=none;spacingLeft=4;fontSize=12;verticalAlign=top;resizable=0;rotatable=0;part=1;html=1;" vertex="1" parent="r9TU66ESRmwP2G9Z5Zs9-37">
          <mxGeometry y="30" width="160" height="40" as="geometry" />
        </mxCell>
        <mxCell id="r9TU66ESRmwP2G9Z5Zs9-39" value="" style="endArrow=none;html=1;rounded=0;curved=1;dashed=1;" edge="1" parent="1" source="r9TU66ESRmwP2G9Z5Zs9-47" target="r9TU66ESRmwP2G9Z5Zs9-12">
          <mxGeometry relative="1" as="geometry">
            <mxPoint x="226.19047619047637" y="90" as="sourcePoint" />
            <mxPoint x="573.4042553191489" y="50" as="targetPoint" />
          </mxGeometry>
        </mxCell>
        <mxCell id="r9TU66ESRmwP2G9Z5Zs9-40" value="" style="endArrow=none;html=1;rounded=0;curved=1;dashed=1;" edge="1" parent="1" source="r9TU66ESRmwP2G9Z5Zs9-36" target="r9TU66ESRmwP2G9Z5Zs9-12">
          <mxGeometry relative="1" as="geometry">
            <mxPoint x="236.19047619047615" y="100" as="sourcePoint" />
            <mxPoint x="480" y="164" as="targetPoint" />
          </mxGeometry>
        </mxCell>
        <mxCell id="r9TU66ESRmwP2G9Z5Zs9-41" value="" style="endArrow=none;html=1;rounded=0;curved=1;dashed=1;entryX=0.328;entryY=0.007;entryDx=0;entryDy=0;entryPerimeter=0;" edge="1" parent="1" source="r9TU66ESRmwP2G9Z5Zs9-34" target="r9TU66ESRmwP2G9Z5Zs9-12">
          <mxGeometry relative="1" as="geometry">
            <mxPoint x="281.7948717948716" y="10" as="sourcePoint" />
            <mxPoint x="504.3589743589746" y="150" as="targetPoint" />
          </mxGeometry>
        </mxCell>
        <mxCell id="r9TU66ESRmwP2G9Z5Zs9-42" value="Accion" style="swimlane;childLayout=stackLayout;horizontal=1;startSize=30;horizontalStack=0;rounded=1;fontSize=14;fontStyle=0;strokeWidth=2;resizeParent=0;resizeLast=1;shadow=0;dashed=0;align=center;" vertex="1" parent="1">
          <mxGeometry x="10" y="-190" width="160" height="70" as="geometry" />
        </mxCell>
        <mxCell id="r9TU66ESRmwP2G9Z5Zs9-43" value="-&amp;nbsp;&lt;u&gt;id&lt;/u&gt;&lt;br&gt;- fecha" style="align=left;strokeColor=none;fillColor=none;spacingLeft=4;fontSize=12;verticalAlign=top;resizable=0;rotatable=0;part=1;html=1;" vertex="1" parent="r9TU66ESRmwP2G9Z5Zs9-42">
          <mxGeometry y="30" width="160" height="40" as="geometry" />
        </mxCell>
        <mxCell id="r9TU66ESRmwP2G9Z5Zs9-44" value="" style="endArrow=none;html=1;rounded=0;curved=1;dashed=1;" edge="1" parent="1" source="r9TU66ESRmwP2G9Z5Zs9-43" target="r9TU66ESRmwP2G9Z5Zs9-1">
          <mxGeometry relative="1" as="geometry">
            <mxPoint x="130" y="80" as="sourcePoint" />
            <mxPoint x="480" y="164" as="targetPoint" />
            <Array as="points">
              <mxPoint x="-30" y="20" />
            </Array>
          </mxGeometry>
        </mxCell>
        <mxCell id="r9TU66ESRmwP2G9Z5Zs9-49" value="" style="endArrow=none;html=1;rounded=0;curved=1;" edge="1" parent="1" source="r9TU66ESRmwP2G9Z5Zs9-43" target="r9TU66ESRmwP2G9Z5Zs9-33">
          <mxGeometry relative="1" as="geometry">
            <mxPoint x="272.82051282051316" y="10" as="sourcePoint" />
            <mxPoint x="502.56410256410254" y="150" as="targetPoint" />
          </mxGeometry>
        </mxCell>
        <mxCell id="r9TU66ESRmwP2G9Z5Zs9-50" value="" style="endArrow=none;html=1;rounded=0;curved=1;" edge="1" parent="1" source="r9TU66ESRmwP2G9Z5Zs9-43" target="r9TU66ESRmwP2G9Z5Zs9-35">
          <mxGeometry relative="1" as="geometry">
            <mxPoint x="180.00000000000023" y="-118.38709677419342" as="sourcePoint" />
            <mxPoint x="330" y="-96.61290322580635" as="targetPoint" />
          </mxGeometry>
        </mxCell>
        <mxCell id="r9TU66ESRmwP2G9Z5Zs9-51" value="" style="endArrow=none;html=1;rounded=0;curved=1;" edge="1" parent="1" source="r9TU66ESRmwP2G9Z5Zs9-43" target="r9TU66ESRmwP2G9Z5Zs9-37">
          <mxGeometry relative="1" as="geometry">
            <mxPoint x="126.66666666666674" y="-110" as="sourcePoint" />
            <mxPoint x="193.3333333333337" y="-60" as="targetPoint" />
          </mxGeometry>
        </mxCell>
      </root>
    </mxGraphModel>
  </diagram>
</mxfile>
